<svg id="visual" viewBox="0 0 900 600" width="900" height="600" xmlns="http://www.w3.org/2000/svg" xmlns:xlink="http://www.w3.org/1999/xlink" version="1.1"><g stroke-width="1" stroke-linejoin="bevel"><path d="M392 269L403 214L294 221Z" fill="#a04b35" stroke="#a04b35"></path><path d="M302 77L233 194L294 221Z" fill="#a65b29" stroke="#a65b29"></path><path d="M294 221L261 333L392 269Z" fill="#1c1f37" stroke="#1c1f37"></path><path d="M233 194L238 283L294 221Z" fill="#302442" stroke="#302442"></path><path d="M392 269L468 198L403 214Z" fill="#722f4c" stroke="#722f4c"></path><path d="M403 214L302 77L294 221Z" fill="#0d192a" stroke="#0d192a"></path><path d="M238 283L261 333L294 221Z" fill="#953d3f" stroke="#953d3f"></path><path d="M362 65L302 77L403 214Z" fill="#a04b35" stroke="#a04b35"></path><path d="M468 198L362 65L403 214Z" fill="#00101c" stroke="#00101c"></path><path d="M484 402L520 260L392 269Z" fill="#953d3f" stroke="#953d3f"></path><path d="M392 269L520 260L468 198Z" fill="#0d192a" stroke="#0d192a"></path><path d="M468 198L522 99L362 65Z" fill="#a04b35" stroke="#a04b35"></path><path d="M261 333L407 400L392 269Z" fill="#0d192a" stroke="#0d192a"></path><path d="M261 333L304 426L407 400Z" fill="#853447" stroke="#853447"></path><path d="M184 0L201 89L302 77Z" fill="#a65b29" stroke="#a65b29"></path><path d="M302 77L201 89L233 194Z" fill="#00101c" stroke="#00101c"></path><path d="M233 194L139 237L238 283Z" fill="#302442" stroke="#302442"></path><path d="M201 89L139 237L233 194Z" fill="#0d192a" stroke="#0d192a"></path><path d="M114 386L181 432L261 333Z" fill="#00101c" stroke="#00101c"></path><path d="M261 333L181 432L304 426Z" fill="#722f4c" stroke="#722f4c"></path><path d="M364 465L484 402L407 400Z" fill="#5c2b4d" stroke="#5c2b4d"></path><path d="M407 400L484 402L392 269Z" fill="#0d192a" stroke="#0d192a"></path><path d="M602 169L522 99L468 198Z" fill="#302442" stroke="#302442"></path><path d="M304 426L364 465L407 400Z" fill="#853447" stroke="#853447"></path><path d="M362 65L318 0L302 77Z" fill="#00101c" stroke="#00101c"></path><path d="M413 0L318 0L362 65Z" fill="#00101c" stroke="#00101c"></path><path d="M522 99L413 0L362 65Z" fill="#a04b35" stroke="#a04b35"></path><path d="M635 331L602 169L520 260Z" fill="#302442" stroke="#302442"></path><path d="M520 260L602 169L468 198Z" fill="#5c2b4d" stroke="#5c2b4d"></path><path d="M522 99L501 0L413 0Z" fill="#722f4c" stroke="#722f4c"></path><path d="M114 386L261 333L238 283Z" fill="#853447" stroke="#853447"></path><path d="M304 426L293 529L364 465Z" fill="#45284a" stroke="#45284a"></path><path d="M0 217L88 285L139 237Z" fill="#1c1f37" stroke="#1c1f37"></path><path d="M139 237L88 285L238 283Z" fill="#a65b29" stroke="#a65b29"></path><path d="M602 169L578 91L522 99Z" fill="#a65b29" stroke="#a65b29"></path><path d="M577 0L501 0L522 99Z" fill="#00101c" stroke="#00101c"></path><path d="M184 0L128 60L201 89Z" fill="#a65b29" stroke="#a65b29"></path><path d="M201 89L128 60L139 237Z" fill="#853447" stroke="#853447"></path><path d="M520 514L586 384L484 402Z" fill="#853447" stroke="#853447"></path><path d="M484 402L586 384L520 260Z" fill="#0d192a" stroke="#0d192a"></path><path d="M88 285L114 386L238 283Z" fill="#45284a" stroke="#45284a"></path><path d="M318 0L184 0L302 77Z" fill="#853447" stroke="#853447"></path><path d="M586 384L635 331L520 260Z" fill="#a65b29" stroke="#a65b29"></path><path d="M191 492L304 426L181 432Z" fill="#a65b29" stroke="#a65b29"></path><path d="M191 492L293 529L304 426Z" fill="#953d3f" stroke="#953d3f"></path><path d="M364 465L520 514L484 402Z" fill="#302442" stroke="#302442"></path><path d="M112 519L191 492L181 432Z" fill="#722f4c" stroke="#722f4c"></path><path d="M708 0L577 0L578 91Z" fill="#722f4c" stroke="#722f4c"></path><path d="M578 91L577 0L522 99Z" fill="#5c2b4d" stroke="#5c2b4d"></path><path d="M697 132L578 91L602 169Z" fill="#a04b35" stroke="#a04b35"></path><path d="M184 0L120 0L128 60Z" fill="#0d192a" stroke="#0d192a"></path><path d="M0 135L0 217L139 237Z" fill="#a04b35" stroke="#a04b35"></path><path d="M738 400L712 302L635 331Z" fill="#a65b29" stroke="#a65b29"></path><path d="M387 600L520 514L364 465Z" fill="#0d192a" stroke="#0d192a"></path><path d="M0 135L139 237L128 60Z" fill="#853447" stroke="#853447"></path><path d="M88 285L0 413L114 386Z" fill="#1c1f37" stroke="#1c1f37"></path><path d="M0 217L0 260L88 285Z" fill="#302442" stroke="#302442"></path><path d="M114 386L112 519L181 432Z" fill="#a04b35" stroke="#a04b35"></path><path d="M712 302L710 215L635 331Z" fill="#1c1f37" stroke="#1c1f37"></path><path d="M635 331L710 215L602 169Z" fill="#0d192a" stroke="#0d192a"></path><path d="M710 215L697 132L602 169Z" fill="#1c1f37" stroke="#1c1f37"></path><path d="M0 0L0 135L128 60Z" fill="#00101c" stroke="#00101c"></path><path d="M738 400L635 331L586 384Z" fill="#1c1f37" stroke="#1c1f37"></path><path d="M282 600L387 600L293 529Z" fill="#45284a" stroke="#45284a"></path><path d="M293 529L387 600L364 465Z" fill="#1c1f37" stroke="#1c1f37"></path><path d="M0 413L112 519L114 386Z" fill="#1c1f37" stroke="#1c1f37"></path><path d="M203 600L282 600L293 529Z" fill="#1c1f37" stroke="#1c1f37"></path><path d="M203 600L293 529L191 492Z" fill="#0d192a" stroke="#0d192a"></path><path d="M577 600L587 522L520 514Z" fill="#a65b29" stroke="#a65b29"></path><path d="M520 514L587 522L586 384Z" fill="#853447" stroke="#853447"></path><path d="M0 260L0 413L88 285Z" fill="#45284a" stroke="#45284a"></path><path d="M112 519L203 600L191 492Z" fill="#302442" stroke="#302442"></path><path d="M387 600L520 600L520 514Z" fill="#853447" stroke="#853447"></path><path d="M120 0L0 0L128 60Z" fill="#302442" stroke="#302442"></path><path d="M700 502L586 384L587 522Z" fill="#5c2b4d" stroke="#5c2b4d"></path><path d="M700 502L738 400L586 384Z" fill="#5c2b4d" stroke="#5c2b4d"></path><path d="M712 302L789 268L710 215Z" fill="#45284a" stroke="#45284a"></path><path d="M828 112L708 0L697 132Z" fill="#45284a" stroke="#45284a"></path><path d="M697 132L708 0L578 91Z" fill="#a65b29" stroke="#a65b29"></path><path d="M837 178L697 132L710 215Z" fill="#953d3f" stroke="#953d3f"></path><path d="M520 600L577 600L520 514Z" fill="#853447" stroke="#853447"></path><path d="M0 413L0 496L112 519Z" fill="#853447" stroke="#853447"></path><path d="M112 519L109 600L203 600Z" fill="#953d3f" stroke="#953d3f"></path><path d="M0 600L109 600L112 519Z" fill="#5c2b4d" stroke="#5c2b4d"></path><path d="M804 370L789 268L712 302Z" fill="#1c1f37" stroke="#1c1f37"></path><path d="M701 600L700 502L587 522Z" fill="#0d192a" stroke="#0d192a"></path><path d="M738 400L804 370L712 302Z" fill="#0d192a" stroke="#0d192a"></path><path d="M835 518L804 370L738 400Z" fill="#853447" stroke="#853447"></path><path d="M900 211L837 178L789 268Z" fill="#853447" stroke="#853447"></path><path d="M789 268L837 178L710 215Z" fill="#853447" stroke="#853447"></path><path d="M837 178L828 112L697 132Z" fill="#1c1f37" stroke="#1c1f37"></path><path d="M0 496L0 600L112 519Z" fill="#302442" stroke="#302442"></path><path d="M700 502L835 518L738 400Z" fill="#45284a" stroke="#45284a"></path><path d="M577 600L701 600L587 522Z" fill="#1c1f37" stroke="#1c1f37"></path><path d="M828 112L807 0L708 0Z" fill="#302442" stroke="#302442"></path><path d="M837 178L900 73L828 112Z" fill="#302442" stroke="#302442"></path><path d="M828 112L900 73L807 0Z" fill="#a04b35" stroke="#a04b35"></path><path d="M900 270L900 211L789 268Z" fill="#a65b29" stroke="#a65b29"></path><path d="M900 270L789 268L804 370Z" fill="#5c2b4d" stroke="#5c2b4d"></path><path d="M900 434L900 270L804 370Z" fill="#0d192a" stroke="#0d192a"></path><path d="M797 600L835 518L700 502Z" fill="#953d3f" stroke="#953d3f"></path><path d="M900 211L900 73L837 178Z" fill="#953d3f" stroke="#953d3f"></path><path d="M701 600L797 600L700 502Z" fill="#1c1f37" stroke="#1c1f37"></path><path d="M900 533L900 434L835 518Z" fill="#1c1f37" stroke="#1c1f37"></path><path d="M835 518L900 434L804 370Z" fill="#00101c" stroke="#00101c"></path><path d="M900 73L900 0L807 0Z" fill="#953d3f" stroke="#953d3f"></path><path d="M900 600L900 533L835 518Z" fill="#45284a" stroke="#45284a"></path><path d="M797 600L900 600L835 518Z" fill="#0d192a" stroke="#0d192a"></path></g></svg>